<?xml version="1.0" encoding="utf-8"?>
<!-- Generator: Adobe Illustrator 23.0.5, SVG Export Plug-In . SVG Version: 6.00 Build 0)  -->
<svg version="1.1" id="Capa_1" xmlns="http://www.w3.org/2000/svg" xmlns:xlink="http://www.w3.org/1999/xlink" x="0px" y="0px"
	 viewBox="0 0 500 500" style="enable-background:new 0 0 500 500;" xml:space="preserve">
<style type="text/css">
	.st0{fill:#FFFFFF;}
</style>
<g>
	<path class="st0" d="M430.9,139.24c-9.5,9.67-20.24,17.76-31.71,24.92c-21.41,13.36-44.87,21.98-68.56,30.19
		c-24.4,8.46-48.83,16.89-72.86,26.31c-19.39,7.6-38.55,15.98-57.21,25.23c-28.25,13.99-54.63,31.06-78.68,51.6
		c-22.22,18.98-41.93,40.13-57.54,64.93c-0.99,1.57-1.82,3.24-2.72,4.86c1.84,0.03,3.08-0.55,4.34-1.07
		c4.6-1.88,9.07-4.22,13.83-5.51c20.82-5.61,42.11-9.05,63.61-9.15c78.47-0.38,156.94-0.16,235.41-0.18c1.37,0,2.74-0.16,5.25-0.33
		c-2.53-2.46-4.28-4.24-6.12-5.94c-7.42-6.86-15.07-13.48-22.23-20.61c-4.78-4.75-10.11-6.79-16.78-6.79
		c-47.98,0.02-95.96-0.12-143.94-0.2c-1.68,0-3.37,0-5.82,0c1.04-0.94,1.31-1.38,1.69-1.51c10.25-3.72,20.34-8.02,30.8-10.99
		c25-7.07,50.22-13.36,75.27-20.26c18.11-4.99,35.89-10.98,52.61-19.74c9.73-5.09,18.81-11.08,26.42-19.07
		c3.95-4.14,7.45-8.66,9.32-14.89c-6.82,3.05-12.98,6.02-19.31,8.59c-20.45,8.29-41.83,13.32-63.26,18.28
		c-28.12,6.52-56.3,12.85-84.17,20.32c-25.67,6.88-49.79,17.86-72.54,31.69c-4.44,2.69-8.79,5.53-13.19,8.3
		c-0.19-0.26-0.38-0.52-0.57-0.78c1.16-1,26.17-32.31,114.62-60.59c20.45-5.45,41.17-9.86,61.83-14.48
		c19.04-4.26,37.6-9.93,54.71-19.38c35.45-19.58,59.79-48.84,73.99-86.65c0.44-1.18,0.67-2.44,1-3.66
		C435.36,134.68,433.14,136.97,430.9,139.24"/>
	<path class="st0" d="M102.3,297.28c21.08-19.74,44.44-36.39,69.5-50.62c39.81-22.61,82.37-38.83,125.64-53.35
		c20.23-6.79,40.59-13.2,60.64-20.5c15.99-5.82,31.47-12.97,45.01-23.62c1.56-1.23,3.05-2.56,5.34-4.5
		c-2.08-0.29-2.98-0.5-3.87-0.52c-14.76-0.25-29.52-0.7-44.28-0.66c-29.85,0.08-59.7,0.46-89.54,0.67
		c-39.16,0.27-78.32,0.51-117.48,0.76c-9.79,0.06-19.58,0.15-29.37,0.25c-1.18,0.01-2.36,0.21-4.26,0.4
		c1.15,1.03,1.69,1.56,2.28,2.03c10.07,7.97,20.25,15.79,30.15,23.96c3.57,2.95,7.26,4.37,11.83,4.28
		c26.94-0.55,53.88-1.01,80.83-1.47c4.85-0.08,9.71-0.01,15.65-0.01c-1.66,0.87-2.32,1.25-3.01,1.58
		c-26.88,12.73-52.73,27.26-77.21,44.19c-23.56,16.29-45.83,34.11-65.02,55.51c-7.27,8.11-14.42,16.37-19.57,26.08
		c0.23,0.27,0.46,0.54,0.68,0.8C98.26,300.79,100.35,299.11,102.3,297.28"/>
</g>
<g>
</g>
<g>
</g>
<g>
</g>
<g>
</g>
<g>
</g>
<g>
</g>
</svg>
