<?xml version="1.0" encoding="utf-8"?>
<!-- Generator: Adobe Illustrator 23.0.5, SVG Export Plug-In . SVG Version: 6.00 Build 0)  -->
<svg version="1.1" id="Capa_1" xmlns="http://www.w3.org/2000/svg" xmlns:xlink="http://www.w3.org/1999/xlink" x="0px" y="0px"
	 viewBox="0 0 500 500" style="enable-background:new 0 0 500 500;" xml:space="preserve">
<g>
	<path d="M450.58,127.19c-10.54,10.72-22.44,19.69-35.16,27.63c-23.74,14.81-49.75,24.37-76.02,33.48
		c-27.05,9.38-54.14,18.73-80.79,29.17c-21.5,8.43-42.75,17.72-63.44,27.97c-31.32,15.52-60.58,34.44-87.25,57.22
		c-24.64,21.04-46.5,44.5-63.81,72c-1.1,1.74-2.02,3.59-3.02,5.38c2.04,0.04,3.41-0.61,4.82-1.18c5.1-2.08,10.06-4.68,15.33-6.1
		c23.09-6.23,46.69-10.04,70.54-10.15c87.01-0.42,174.02-0.18,261.03-0.2c1.52,0,3.04-0.18,5.82-0.36c-2.8-2.72-4.75-4.7-6.79-6.58
		c-8.23-7.6-16.71-14.95-24.65-22.85c-5.3-5.27-11.2-7.53-18.6-7.52c-53.2,0.03-106.4-0.13-159.6-0.23c-1.87,0-3.73,0-6.46,0
		c1.15-1.04,1.46-1.53,1.88-1.68c11.36-4.13,22.55-8.89,34.16-12.18c27.72-7.84,55.68-14.82,83.46-22.46
		c20.08-5.53,39.8-12.18,58.34-21.89c10.78-5.65,20.86-12.28,29.29-21.14c4.38-4.59,8.26-9.6,10.34-16.51
		c-7.56,3.38-14.39,6.68-21.41,9.53c-22.67,9.19-46.38,14.76-70.14,20.27c-31.18,7.23-62.42,14.25-93.33,22.53
		c-28.47,7.63-55.2,19.81-80.43,35.14c-4.92,2.99-9.75,6.13-14.62,9.21c-0.21-0.29-0.42-0.57-0.63-0.86
		c1.28-1.11,29.02-35.82,127.09-67.18c22.67-6.04,45.65-10.94,68.56-16.06c21.11-4.72,41.69-11.01,60.66-21.49
		c39.3-21.71,66.29-54.15,82.04-96.07c0.49-1.31,0.74-2.7,1.11-4.05C455.54,122.13,453.06,124.67,450.58,127.19"/>
	<path d="M86.23,302.43c23.38-21.88,49.27-40.35,77.07-56.13c44.15-25.07,91.33-43.06,139.31-59.15
		c22.43-7.53,45.01-14.64,67.24-22.73c17.73-6.46,34.89-14.38,49.9-26.2c1.73-1.37,3.38-2.84,5.92-4.99
		c-2.31-0.32-3.3-0.56-4.29-0.57c-16.37-0.28-32.74-0.77-49.1-0.73c-33.1,0.09-66.19,0.51-99.29,0.75
		c-43.42,0.3-86.84,0.56-130.26,0.84c-10.85,0.07-21.71,0.16-32.56,0.28c-1.31,0.02-2.62,0.24-4.72,0.44
		c1.28,1.14,1.88,1.73,2.53,2.25c11.16,8.84,22.45,17.51,33.43,26.57c3.96,3.27,8.05,4.85,13.12,4.74
		c29.87-0.61,59.75-1.12,89.62-1.63c5.38-0.09,10.77-0.02,17.35-0.02c-1.84,0.96-2.58,1.38-3.34,1.75
		c-29.81,14.12-58.46,30.23-85.61,48.99c-26.13,18.06-50.82,37.82-72.1,61.55c-8.07,8.99-15.99,18.15-21.7,28.92
		c0.25,0.3,0.51,0.6,0.75,0.89C81.75,306.32,84.07,304.46,86.23,302.43"/>
</g>
<g>
</g>
<g>
</g>
<g>
</g>
<g>
</g>
<g>
</g>
<g>
</g>
</svg>
