<?xml version="1.0" encoding="utf-8"?>
<!-- Generator: Adobe Illustrator 26.4.1, SVG Export Plug-In . SVG Version: 6.00 Build 0)  -->
<svg version="1.1" id="Capa_1" xmlns="http://www.w3.org/2000/svg" xmlns:xlink="http://www.w3.org/1999/xlink" x="0px" y="0px"
	 width="500px" height="500px" viewBox="0 0 500 500" enable-background="new 0 0 500 500" xml:space="preserve">
<polygon id="A" fill="#FFFFFF" points="389.96,284.35 384.44,284.35 366.35,312.21 371.44,312.21 386.6,288.35 392.43,305.65 
	394.65,312.21 399.73,312.21 "/>
<polygon id="E_00000116237543363016539780000007507921892924392372_" fill="#FFFFFF" points="338.59,300.32 355.01,300.32 
	355.61,296.26 343.42,296.26 343.42,296.26 334.31,296.26 331.94,312.21 356.52,312.21 357.12,308.15 337.42,308.15 "/>
<polygon id="E_00000168820006096786656480000002154455959326163899_" fill="#FFFFFF" points="336.08,284.35 335.47,288.44 
	340.35,288.44 340.36,288.41 360.06,288.41 360.66,284.35 "/>
<path id="R" fill="#FFFFFF" d="M322.1,312.21h-5.5l-4.41-9.84h-10.87l-1.46,9.84h-4.88l4.14-27.86h17.17c1.96,0,3.59,0.39,4.88,1.16
	c1.29,0.78,2.21,1.84,2.78,3.19c0.56,1.35,0.71,2.9,0.45,4.67c-0.28,1.85-0.96,3.48-2.06,4.88c-1.1,1.4-2.78,2.6-5.05,3.6
	L322.1,312.21z M314.21,298.31c1.32,0,2.47-0.44,3.47-1.32c0.99-0.88,1.61-2.09,1.83-3.62c0.23-1.55-0.05-2.77-0.85-3.64
	c-0.79-0.88-1.79-1.31-2.98-1.31h-12.28l-1.47,9.9H314.21z"/>
<path id="Y" fill="#FFFFFF" d="M271.56,312.21h-4.88l2.12-14.28l-11.57-13.59h5.85l8.72,9.77l11.63-9.77h5.85l-15.61,13.59
	L271.56,312.21z"/>
<path id="H" fill="#FFFFFF" d="M243.26,312.21h-4.88l1.77-11.89h-21.38L217,312.21h-4.88l4.14-27.86h4.88l-1.77,11.91h21.38
	l1.77-11.91h4.88L243.26,312.21z"/>
<path id="P" fill="#FFFFFF" d="M180.55,312.21h-4.88l4.14-27.86h17.16c1.96,0,3.59,0.39,4.88,1.16c1.29,0.78,2.21,1.84,2.78,3.19
	c0.56,1.35,0.71,2.9,0.45,4.67c-0.39,2.62-1.58,4.78-3.58,6.47c-2,1.69-4.4,2.53-7.21,2.53h-12.28L180.55,312.21z M194.9,298.31
	c1.32,0,2.47-0.44,3.47-1.32c0.99-0.88,1.61-2.09,1.83-3.62c0.23-1.55-0.05-2.77-0.85-3.64c-0.79-0.88-1.79-1.31-2.98-1.31h-12.28
	l-1.47,9.9H194.9z"/>
<polygon id="E_00000104686649860644627910000009963274566556412831_" fill="#FFFFFF" points="147.9,300.32 164.32,300.32 
	164.92,296.26 148.5,296.26 148.51,296.23 143.62,296.23 141.25,312.21 165.83,312.21 166.43,308.15 146.73,308.15 "/>
<polygon id="E" fill="#FFFFFF" points="145.39,284.35 144.78,288.44 149.66,288.44 149.67,288.41 169.37,288.41 169.97,284.35 "/>
<path id="Z" fill="#FFFFFF" d="M131.41,312.21h-31.14l0.79-5.31l26.66-18.49h-23.09l0.6-4.06h29.5l-0.79,5.31l-26.68,18.49h24.75
	L131.41,312.21z"/>
<path id="ISOTIPO_PARTE_INFERIOR" fill="#29A8FF" d="M301.56,189.65c-2.71,2.75-5.77,5.06-9.04,7.1c-6.1,3.81-12.79,6.26-19.54,8.6
	c-6.95,2.41-13.92,4.81-20.77,7.5c-5.53,2.17-10.99,4.55-16.31,7.19c-8.05,3.99-15.57,8.85-22.43,14.71
	c-6.33,5.41-11.95,11.44-16.4,18.51c-0.28,0.45-0.52,0.92-0.77,1.38c0.53,0.01,0.88-0.16,1.24-0.3c1.31-0.53,2.59-1.2,3.94-1.57
	c5.93-1.6,12-2.58,18.13-2.61c22.36-0.11,44.73-0.05,67.09-0.05c0.39,0,0.78-0.05,1.49-0.09c-0.72-0.7-1.22-1.21-1.74-1.69
	c-2.11-1.95-4.29-3.84-6.33-5.87c-1.36-1.36-2.88-1.94-4.78-1.93c-13.67,0.01-27.35-0.03-41.02-0.06c-0.48,0-0.96,0-1.66,0
	c0.29-0.27,0.37-0.39,0.48-0.43c2.92-1.06,5.8-2.29,8.78-3.13c7.12-2.02,14.31-3.81,21.45-5.77c5.16-1.42,10.23-3.13,15-5.63
	c2.77-1.45,5.36-3.16,7.53-5.43c1.12-1.18,2.12-2.47,2.66-4.24c-1.94,0.87-3.7,1.72-5.5,2.45c-5.83,2.36-11.92,3.8-18.03,5.21
	c-8.01,1.86-16.04,3.66-23.99,5.79c-7.32,1.96-14.19,5.09-20.67,9.03c-1.27,0.77-2.51,1.58-3.76,2.37
	c-0.05-0.07-0.11-0.15-0.16-0.22c0.33-0.29,7.46-9.21,32.67-17.27c5.83-1.55,11.73-2.81,17.62-4.13c5.43-1.21,10.72-2.83,15.59-5.52
	c10.1-5.58,17.04-13.92,21.09-24.69c0.13-0.34,0.19-0.69,0.28-1.04C302.83,188.35,302.19,189,301.56,189.65z"/>
<path id="ISOTIPO_PARTE_SUPERIOR" fill="#1E5AA8" d="M207.91,234.69c6.01-5.63,12.66-10.37,19.81-14.43
	c11.35-6.44,23.48-11.07,35.81-15.2c5.77-1.93,11.57-3.76,17.28-5.84c4.56-1.66,8.97-3.7,12.83-6.73c0.45-0.35,0.87-0.73,1.52-1.28
	c-0.59-0.08-0.85-0.14-1.1-0.15c-4.21-0.07-8.41-0.2-12.62-0.19c-8.51,0.02-17.01,0.13-25.52,0.19
	c-11.16,0.08-22.32,0.14-33.48,0.22c-2.79,0.02-5.58,0.04-8.37,0.07c-0.34,0-0.67,0.06-1.21,0.11c0.33,0.29,0.48,0.45,0.65,0.58
	c2.87,2.27,5.77,4.5,8.59,6.83c1.02,0.84,2.07,1.25,3.37,1.22c7.68-0.16,15.36-0.29,23.04-0.42c1.38-0.02,2.77,0,4.46,0
	c-0.47,0.25-0.66,0.36-0.86,0.45c-7.66,3.63-15.03,7.77-22,12.59c-6.72,4.64-13.06,9.72-18.53,15.82c-2.07,2.31-4.11,4.67-5.58,7.43
	c0.06,0.08,0.13,0.15,0.19,0.23C206.75,235.69,207.35,235.21,207.91,234.69z"/>
<g>
</g>
<g>
</g>
<g>
</g>
<g>
</g>
<g>
</g>
<g>
</g>
</svg>
