<?xml version="1.0" encoding="utf-8"?>
<!-- Generator: Adobe Illustrator 26.4.1, SVG Export Plug-In . SVG Version: 6.00 Build 0)  -->
<svg version="1.1" id="ZEPHYREA" xmlns="http://www.w3.org/2000/svg" xmlns:xlink="http://www.w3.org/1999/xlink" x="0px" y="0px"
	 width="500px" height="500px" viewBox="0 0 500 500" enable-background="new 0 0 500 500" xml:space="preserve">
<path id="ISOTIPO_PARTE_INFERIOR" fill="#29A8FF" d="M456.7,124.83c-10.74,10.92-22.87,20.07-35.83,28.16
	c-24.19,15.1-50.71,24.83-77.48,34.12c-27.57,9.57-55.19,19.09-82.35,29.73c-21.92,8.59-43.57,18.06-64.66,28.51
	c-31.93,15.82-61.74,35.11-88.93,58.32c-25.11,21.44-47.39,45.35-65.04,73.39c-1.12,1.77-2.05,3.66-3.07,5.49
	c2.08,0.03,3.48-0.62,4.91-1.21c5.2-2.12,10.25-4.77,15.63-6.22c23.53-6.34,47.59-10.23,71.89-10.35
	c88.68-0.43,177.37-0.18,266.06-0.2c1.55,0,3.1-0.19,5.93-0.37c-2.85-2.77-4.84-4.79-6.92-6.71c-8.39-7.75-17.03-15.24-25.12-23.29
	c-5.4-5.38-11.42-7.68-18.96-7.67c-54.23,0.03-108.45-0.13-162.68-0.23c-1.9,0-3.81,0-6.58,0c1.17-1.06,1.48-1.55,1.91-1.71
	c11.58-4.2,22.98-9.06,34.81-12.41c28.25-7.99,56.75-15.1,85.06-22.9c20.47-5.64,40.57-12.41,59.47-22.31
	c10.99-5.76,21.26-12.52,29.86-21.55c4.46-4.68,8.41-9.78,10.53-16.83c-7.7,3.44-14.67,6.81-21.82,9.71
	c-23.11,9.37-47.28,15.05-71.49,20.67c-31.78,7.37-63.63,14.52-95.13,22.96c-29.02,7.77-56.27,20.19-81.98,35.81
	c-5.02,3.05-9.94,6.25-14.9,9.38c-0.22-0.29-0.43-0.58-0.65-0.87c1.31-1.13,29.58-36.51,129.54-68.47
	c23.11-6.16,46.53-11.15,69.88-16.37c21.52-4.81,42.49-11.22,61.83-21.9c40.06-22.13,67.57-55.2,83.62-97.93
	c0.5-1.33,0.76-2.75,1.13-4.13C461.75,119.67,459.23,122.25,456.7,124.83z"/>
<path id="ISOTIPO_PARTE_SUPERIOR" fill="#1E5AA8" d="M85.33,303.44c23.83-22.31,50.22-41.12,78.55-57.21
	c45-25.55,93.09-43.88,141.99-60.29c22.86-7.67,45.88-14.92,68.53-23.17c18.07-6.58,35.57-14.66,50.87-26.7
	c1.77-1.39,3.44-2.9,6.04-5.09c-2.36-0.32-3.36-0.57-4.37-0.58c-16.68-0.28-33.37-0.79-50.05-0.74
	c-33.73,0.09-67.47,0.52-101.2,0.76c-44.26,0.31-88.51,0.57-132.77,0.86c-11.06,0.07-22.13,0.17-33.19,0.28
	c-1.34,0.01-2.67,0.24-4.81,0.45c1.3,1.16,1.91,1.77,2.58,2.29c11.37,9.01,22.88,17.85,34.07,27.08c4.04,3.33,8.2,4.94,13.37,4.83
	c30.45-0.62,60.9-1.14,91.35-1.66c5.49-0.09,10.98-0.01,17.68-0.01c-1.87,0.98-2.62,1.41-3.41,1.78
	c-30.38,14.39-59.59,30.81-87.26,49.94c-26.63,18.41-51.8,38.55-73.48,62.73c-8.22,9.17-16.3,18.5-22.12,29.48
	c0.26,0.3,0.51,0.6,0.77,0.91C80.76,307.4,83.12,305.5,85.33,303.44z"/>
<g>
</g>
<g>
</g>
<g>
</g>
<g>
</g>
<g>
</g>
<g>
</g>
</svg>
